<?xml version="1.0" encoding="utf-8"?>
<!-- Generator: Adobe Illustrator 24.3.0, SVG Export Plug-In . SVG Version: 6.00 Build 0)  -->
<svg version="1.1" id="Calque_1" xmlns="http://www.w3.org/2000/svg" xmlns:xlink="http://www.w3.org/1999/xlink" x="0px" y="0px"
	 viewBox="0 0 90 90" style="enable-background:new 0 0 90 90;" xml:space="preserve">
<style type="text/css">
	.st0{fill:#A9D9E7;}
	.st1{fill:url(#SVGID_1_);}
	.st2{fill:url(#SVGID_2_);}
	.st3{fill:url(#SVGID_3_);}
	.st4{fill:url(#SVGID_4_);}
	.st5{opacity:0.6;}
	.st6{fill:#C2E3EC;}
	.st7{filter:url(#Adobe_OpacityMaskFilter);}
	.st8{opacity:0.25;mask:url(#SVGID_5_);}
	.st9{fill:#003B48;}
</style>
<g>
	
		<image style="overflow:visible;opacity:0.35;" width="495" height="414" xlink:href="70C5D6BE.png"  transform="matrix(0.24 0 0 0.24 -14.52 5.88)">
	</image>
	<g>
		<g>
			<g>
				<path class="st0" d="M89.1,32.2c0-2.3-1.9-4.2-4.2-4.2h-7.7c0,0-42.8-0.2-43.3,0c-2.7-0.5-4.3-4.2-4.3-4.3
					c-0.7-1.5-3.3-2.5-3.3-2.6c4,0-21,0-21,0c-2.3,0-4.2,1.9-4.2,4.2v47h88.1V32.2z"/>
				<linearGradient id="SVGID_1_" gradientUnits="userSpaceOnUse" x1="45" y1="32.1066" x2="45" y2="83.2972">
					<stop  offset="0" style="stop-color:#93D3E6"/>
					<stop  offset="1" style="stop-color:#51AEC7"/>
				</linearGradient>
				<path class="st1" d="M89.1,36.3c0-2.3-1.9-4.2-4.2-4.2H5.2c-2.3,0-4.2,1.9-4.2,4.2v47h88.1V36.3z"/>
				<linearGradient id="SVGID_2_" gradientUnits="userSpaceOnUse" x1="45" y1="83.2972" x2="45" y2="85.6365">
					<stop  offset="0" style="stop-color:#7FCCE4"/>
					<stop  offset="1" style="stop-color:#51AEC7"/>
				</linearGradient>
				<rect x="0.9" y="83.3" class="st2" width="88.1" height="2.3"/>
				<linearGradient id="SVGID_3_" gradientUnits="userSpaceOnUse" x1="45" y1="85.6365" x2="45" y2="87.4746">
					<stop  offset="0" style="stop-color:#7FCCE4"/>
					<stop  offset="1" style="stop-color:#51AEC7"/>
				</linearGradient>
				<rect x="0.9" y="85.6" class="st3" width="88.1" height="1.8"/>
				<linearGradient id="SVGID_4_" gradientUnits="userSpaceOnUse" x1="45" y1="87.4746" x2="45" y2="90.0346">
					<stop  offset="0" style="stop-color:#7FCCE4"/>
					<stop  offset="1" style="stop-color:#51AEC7"/>
				</linearGradient>
				<path class="st4" d="M0.9,87.5v0.3c0,1.2,1,2.2,2.2,2.2h83.7c1.2,0,2.2-1,2.2-2.2v-0.3H0.9z"/>
				<g class="st5">
					
						<image style="overflow:visible;" width="669" height="543" xlink:href="70C5D6C2.png"  transform="matrix(0.24 0 0 0.24 -35.28 -4.08)">
					</image>
				</g>
			</g>
			<g>
				<g>
					<path class="st6" d="M58.3,58.2l9,0l0.1,4.8l-6.4,0L58.3,58.2z M21.8,58.3l0,4.8l5.4,0l2.8-4.8L21.8,58.3z M38.2,58.3l-2.8,4.8
						l17.4,0l-2.7-4.8L38.2,58.3z M60.4,64.3c-1.4,0.8-2.8,1.6-4.2,2.4l2.4,4.2l4.2-2.4L60.4,64.3z M59.1,71.8
						c-0.2,0.7,0.5,1.7,0.9,2.3c0.2,0.3,0.4,0.6,0.7,0.9c0.3,0.2,0.8,0.6,1.2,0.8c1.5,0.7,2.7,1.2,5.1,0.7c-1.7-0.7-1.9-2-2-3.5
						c-0.1-0.4-0.2-1.2-0.4-1.5c-0.4-0.7-0.9-1.7-1.6-2c-0.7-0.2-1.5,0.4-2.2,0.8C60.3,70.7,59.3,71.1,59.1,71.8z M44.2,45.3
						L55.8,66l4.2-2.4l-12.9-23c-0.3-0.5-1-0.7-1.5-0.4l-2.2,1.3c-0.5,0.3-0.7,1-0.4,1.5l1.3,2.2C44.1,45.3,44.1,45.3,44.2,45.3z
						 M43.5,45.3l-0.1-0.1c-0.1-0.2-0.2-0.3-0.4-0.4l-2.2-1.3c-0.5-0.3-1.2-0.1-1.5,0.4L38,46.2l4.2,2.4l1.3-2.3
						C43.6,46,43.6,45.7,43.5,45.3z M25.9,67.7l-2.2,9.1l6.4-6.7C28.7,69.3,27.3,68.5,25.9,67.7z M26.3,67l4.2,2.4l11.1-19.8
						l-4.2-2.4L26.3,67z"/>
				</g>
				<defs>
					<filter id="Adobe_OpacityMaskFilter" filterUnits="userSpaceOnUse" x="21.8" y="40.1" width="45.7" height="36.7">
						
							<feColorMatrix  type="matrix" values="-1 0 0 0 1  0 -1 0 0 1  0 0 -1 0 1  0 0 0 1 0" color-interpolation-filters="sRGB" result="source"/>
					</filter>
				</defs>
				<mask maskUnits="userSpaceOnUse" x="21.8" y="40.1" width="45.7" height="36.7" id="SVGID_5_">
					<g class="st7">
						
							<image style="overflow:visible;" width="208" height="171" xlink:href="70C5D6C2.jpg"  transform="matrix(0.24 0 0 0.24 19.68 37.92)">
						</image>
					</g>
				</mask>
				<g class="st8">
					<path class="st9" d="M58.3,58.2l9,0l0.1,4.8l-6.4,0L58.3,58.2z M21.8,58.3l0,4.8l5.4,0l2.8-4.8L21.8,58.3z M38.2,58.3l-2.8,4.8
						l17.4,0l-2.7-4.8L38.2,58.3z M60.4,64.3c-1.4,0.8-2.8,1.6-4.2,2.4l2.4,4.2l4.2-2.4L60.4,64.3z M59.1,71.8
						c-0.2,0.7,0.5,1.7,0.9,2.3c0.2,0.3,0.4,0.6,0.7,0.9c0.3,0.2,0.8,0.6,1.2,0.8c1.5,0.7,2.7,1.2,5.1,0.7c-1.7-0.7-1.9-2-2-3.5
						c-0.1-0.4-0.2-1.2-0.4-1.5c-0.4-0.7-0.9-1.7-1.6-2c-0.7-0.2-1.5,0.4-2.2,0.8C60.3,70.7,59.3,71.1,59.1,71.8z M44.2,45.3
						L55.8,66l4.2-2.4l-12.9-23c-0.3-0.5-1-0.7-1.5-0.4l-2.2,1.3c-0.5,0.3-0.7,1-0.4,1.5l1.3,2.2C44.1,45.3,44.1,45.3,44.2,45.3z
						 M43.5,45.3l-0.1-0.1c-0.1-0.2-0.2-0.3-0.4-0.4l-2.2-1.3c-0.5-0.3-1.2-0.1-1.5,0.4L38,46.2l4.2,2.4l1.3-2.3
						C43.6,46,43.6,45.7,43.5,45.3z M25.9,67.7l-2.2,9.1l6.4-6.7C28.7,69.3,27.3,68.5,25.9,67.7z M26.3,67l4.2,2.4l11.1-19.8
						l-4.2-2.4L26.3,67z"/>
				</g>
			</g>
		</g>
	</g>
</g>
</svg>
