<?xml version="1.0" encoding="utf-8"?>
<!-- Generator: Adobe Illustrator 24.3.0, SVG Export Plug-In . SVG Version: 6.00 Build 0)  -->
<svg version="1.1" id="Calque_1" xmlns="http://www.w3.org/2000/svg" xmlns:xlink="http://www.w3.org/1999/xlink" x="0px" y="0px"
	 viewBox="0 0 90 90" style="enable-background:new 0 0 90 90;" xml:space="preserve">
<style type="text/css">
	.st0{fill:#A9D9E7;}
	.st1{fill:url(#SVGID_1_);}
	.st2{fill:url(#SVGID_2_);}
	.st3{fill:url(#SVGID_3_);}
	.st4{fill:url(#SVGID_4_);}
	.st5{opacity:0.6;}
	.st6{fill:#C2E3EC;}
	.st7{filter:url(#Adobe_OpacityMaskFilter);}
	.st8{opacity:0.25;mask:url(#SVGID_5_);}
	.st9{fill:#003B48;}
</style>
<g>
	
		<image style="overflow:visible;opacity:0.35;" width="495" height="414" xlink:href="770DD646.png"  transform="matrix(0.24 0 0 0.24 -14.52 5.88)">
	</image>
	<g>
		<g>
			<g>
				<path class="st0" d="M89.1,32.2c0-2.3-1.9-4.2-4.2-4.2h-7.7c0,0-42.8-0.2-43.3,0c-2.7-0.5-4.3-4.2-4.3-4.3
					c-0.7-1.5-3.3-2.5-3.3-2.6c4,0-21,0-21,0c-2.3,0-4.2,1.9-4.2,4.2v47h88.1V32.2z"/>
				<linearGradient id="SVGID_1_" gradientUnits="userSpaceOnUse" x1="45" y1="32.1066" x2="45" y2="83.2972">
					<stop  offset="0" style="stop-color:#93D3E6"/>
					<stop  offset="1" style="stop-color:#51AEC7"/>
				</linearGradient>
				<path class="st1" d="M89.1,36.3c0-2.3-1.9-4.2-4.2-4.2H5.2c-2.3,0-4.2,1.9-4.2,4.2v47h88.1V36.3z"/>
				<linearGradient id="SVGID_2_" gradientUnits="userSpaceOnUse" x1="45" y1="83.2972" x2="45" y2="85.6365">
					<stop  offset="0" style="stop-color:#7FCCE4"/>
					<stop  offset="1" style="stop-color:#51AEC7"/>
				</linearGradient>
				<rect x="0.9" y="83.3" class="st2" width="88.1" height="2.3"/>
				<linearGradient id="SVGID_3_" gradientUnits="userSpaceOnUse" x1="45" y1="85.6365" x2="45" y2="87.4746">
					<stop  offset="0" style="stop-color:#7FCCE4"/>
					<stop  offset="1" style="stop-color:#51AEC7"/>
				</linearGradient>
				<rect x="0.9" y="85.6" class="st3" width="88.1" height="1.8"/>
				<linearGradient id="SVGID_4_" gradientUnits="userSpaceOnUse" x1="45" y1="87.4746" x2="45" y2="90.0346">
					<stop  offset="0" style="stop-color:#7FCCE4"/>
					<stop  offset="1" style="stop-color:#51AEC7"/>
				</linearGradient>
				<path class="st4" d="M0.9,87.5v0.3c0,1.2,1,2.2,2.2,2.2h83.7c1.2,0,2.2-1,2.2-2.2v-0.3H0.9z"/>
				<g class="st5">
					
						<image style="overflow:visible;" width="669" height="543" xlink:href="770DD64A.png"  transform="matrix(0.24 0 0 0.24 -35.28 -4.08)">
					</image>
				</g>
			</g>
		</g>
	</g>
</g>
<g>
	
		<image style="overflow:visible;opacity:0.35;" width="304" height="304" xlink:href="770DD64D.png"  transform="matrix(0.24 0 0 0.24 8.52 23.4)">
	</image>
	<g>
		<g>
			<g>
				<g>
					<path class="st6" d="M66,58.9l-3.1-0.4c-0.1-0.7-0.2-1.5-0.3-2.2l2.9-1.1c0.2-0.1,0.3-0.2,0.3-0.4l-0.3-1
						c-0.1-0.2-0.3-0.3-0.4-0.3L62,53.9c-0.2-0.7-0.5-1.4-0.9-2l2.5-1.8c0.2-0.1,0.2-0.3,0.1-0.5l-0.5-0.9c-0.1-0.2-0.3-0.2-0.5-0.1
						l-2.9,1.2c-0.4-0.6-0.9-1.2-1.4-1.7l1.9-2.4c0.1-0.1,0.1-0.4,0-0.5l-0.7-0.7c-0.1-0.1-0.4-0.1-0.5,0l-2.5,1.9
						c-0.6-0.5-1.1-0.9-1.8-1.3l1.2-2.8c0.1-0.2,0-0.4-0.1-0.5l-0.9-0.5c-0.2-0.1-0.4,0-0.5,0.1l-1.9,2.5c-0.7-0.3-1.3-0.6-2-0.8
						l0.5-3c0.1-0.2-0.1-0.4-0.3-0.4l-1-0.3c-0.2-0.1-0.4,0.1-0.4,0.3l-1.2,2.9c-0.7-0.1-1.4-0.2-2.2-0.3l-0.3-3.1
						c0-0.2-0.2-0.4-0.4-0.4h-1c-0.2,0-0.4,0.2-0.4,0.4L43.6,42c-0.7,0.1-1.5,0.2-2.2,0.3l-1.1-2.9c-0.1-0.2-0.3-0.3-0.4-0.3l-1,0.3
						c-0.2,0.1-0.3,0.3-0.3,0.4l0.4,3.1c-0.7,0.2-1.4,0.5-2,0.9l-1.8-2.5c-0.1-0.2-0.3-0.2-0.5-0.1l-0.9,0.5
						c-0.2,0.1-0.2,0.3-0.1,0.5l1.2,2.9c-0.6,0.4-1.2,0.9-1.7,1.4l-2.4-1.9c-0.1-0.1-0.4-0.1-0.5,0l-0.7,0.7c-0.1,0.1-0.1,0.4,0,0.5
						l1.9,2.5c-0.5,0.6-0.9,1.1-1.3,1.8l-2.8-1.2c-0.2-0.1-0.4,0-0.5,0.1l-0.5,0.9c-0.1,0.2,0,0.4,0.1,0.5l2.5,1.9
						c-0.3,0.7-0.6,1.3-0.8,2l-3-0.5c-0.2-0.1-0.4,0.1-0.4,0.3l-0.3,1c-0.1,0.2,0.1,0.4,0.3,0.4l2.9,1.2c-0.1,0.7-0.2,1.4-0.3,2.2
						L24,59.1c-0.2,0-0.4,0.2-0.4,0.4v1c0,0.2,0.2,0.4,0.4,0.4l3.1,0.4c0.1,0.7,0.2,1.5,0.3,2.2l-2.9,1.1c-0.2,0.1-0.3,0.3-0.3,0.4
						l0.3,1c0.1,0.2,0.2,0.3,0.4,0.3l3.1-0.4c0.2,0.7,0.5,1.4,0.9,2l-2.5,1.8c-0.2,0.1-0.2,0.3-0.1,0.5l0.5,0.9
						c0.1,0.2,0.3,0.2,0.5,0.1l2.9-1.2c0.4,0.6,0.9,1.2,1.4,1.7l-1.9,2.4c-0.1,0.1-0.1,0.4,0,0.5l0.7,0.7c0.1,0.1,0.4,0.1,0.5,0
						l2.5-1.9c0.6,0.5,1.1,0.9,1.8,1.3l-1.2,2.8c-0.1,0.2,0,0.4,0.1,0.5l0.9,0.5c0.2,0.1,0.4,0,0.5-0.1l1.9-2.5
						c0.7,0.3,1.3,0.6,2,0.8l-0.5,3c-0.1,0.2,0.1,0.4,0.3,0.4l1,0.3c0.2,0.1,0.4-0.1,0.4-0.3l1.2-2.9c0.7,0.1,1.4,0.2,2.2,0.3
						l0.3,3.1c0,0.2,0.2,0.4,0.4,0.4l1,0c0.2,0,0.4-0.2,0.4-0.4l0.4-3.1c0.7-0.1,1.5-0.2,2.2-0.3l1.1,2.9c0.1,0.2,0.3,0.3,0.4,0.3
						l1-0.3c0.2-0.1,0.3-0.3,0.3-0.4L51,76.8c0.7-0.2,1.4-0.5,2-0.9l1.8,2.5c0.1,0.2,0.3,0.2,0.5,0.1l0.9-0.5
						c0.2-0.1,0.2-0.3,0.1-0.5l-1.2-2.9c0.6-0.4,1.2-0.9,1.7-1.4l2.4,1.9c0.1,0.1,0.4,0.1,0.5,0l0.7-0.7c0.1-0.1,0.1-0.4,0-0.5
						l-1.9-2.5c0.5-0.6,0.9-1.1,1.3-1.8l2.8,1.2c0.2,0.1,0.4,0,0.5-0.1l0.5-0.9c0.1-0.2,0-0.4-0.1-0.5l-2.5-1.9
						c0.3-0.7,0.6-1.3,0.8-2l3,0.5c0.2,0.1,0.4-0.1,0.4-0.3l0.3-1c0.1-0.2-0.1-0.4-0.3-0.4l-2.9-1.2c0.1-0.7,0.2-1.4,0.3-2.2
						l3.1-0.3c0.2,0,0.4-0.2,0.4-0.4l0-1C66.4,59.1,66.2,58.9,66,58.9z M58,66.5c-2.6,5.3-8.5,8.1-12.7,8.1c-0.2,0-0.4,0-0.6,0
						c-4.2-0.3-4.1-1.5-4.1-2.2c0-0.3,0.6-1.7,4.5-8.3l0.2-0.3c0.4-0.7,1.4-1.4,2.1-1.5c0.5-0.1,3.8-0.2,6.8-0.2
						c1.7,0,2.9,0,3.7,0.1c0.5,0.1,0.8,0.2,1,0.6C59.4,64,58.1,66.4,58,66.5z M32.4,52.4c1.3-1.9,2.3-2.8,3.1-2.8
						c0.3,0,0.6,0.2,0.8,0.3c0.2,0.1,1.2,1.4,4.9,8l0.2,0.3c0.4,0.7,0.5,1.9,0.2,2.5c-0.3,0.6-3.6,6.9-5.1,9.1
						c-0.3,0.4-0.6,0.6-1,0.6c-1.3,0-2.8-2.4-2.8-2.5C29.4,62.9,29.9,55.9,32.4,52.4z M45.9,56.6c-0.4-0.6-4.1-6.6-5.2-9.1
						c-0.2-0.5-0.2-0.8,0-1.2c0.7-1.1,3.5-1.1,3.5-1.1c0.2,0,0.4,0,0.6,0c5.9,0,11.2,3.9,13,7.7c1.8,3.8,0.7,4.3,0.1,4.6
						c-0.1,0.1-0.8,0.2-3.7,0.2c-2.2,0-4.7-0.1-5.7-0.1l-0.3,0C47.4,57.6,46.3,57.1,45.9,56.6z M46.9,59.9c0,1.1-0.9,1.9-1.9,1.9
						c-1.1,0-1.9-0.9-1.9-1.9c0-1.1,0.9-1.9,1.9-1.9C46.1,57.9,46.9,58.8,46.9,59.9z M43.8,59.9c0-0.7,0.5-1.2,1.2-1.2
						s1.2,0.5,1.2,1.2c0,0.7-0.5,1.2-1.2,1.2S43.8,60.5,43.8,59.9z"/>
				</g>
				<defs>
					<filter id="Adobe_OpacityMaskFilter" filterUnits="userSpaceOnUse" x="23.6" y="38.5" width="42.7" height="42.7">
						
							<feColorMatrix  type="matrix" values="-1 0 0 0 1  0 -1 0 0 1  0 0 -1 0 1  0 0 0 1 0" color-interpolation-filters="sRGB" result="source"/>
					</filter>
				</defs>
				<mask maskUnits="userSpaceOnUse" x="23.6" y="38.5" width="42.7" height="42.7" id="SVGID_5_">
					<g class="st7">
						
							<image style="overflow:visible;" width="195" height="195" xlink:href="770DD64E.jpg"  transform="matrix(0.24 0 0 0.24 21.6 36.48)">
						</image>
					</g>
				</mask>
				<g class="st8">
					<path class="st9" d="M66,58.9l-3.1-0.4c-0.1-0.7-0.2-1.5-0.3-2.2l2.9-1.1c0.2-0.1,0.3-0.2,0.3-0.4l-0.3-1
						c-0.1-0.2-0.3-0.3-0.4-0.3L62,53.9c-0.2-0.7-0.5-1.4-0.9-2l2.5-1.8c0.2-0.1,0.2-0.3,0.1-0.5l-0.5-0.9c-0.1-0.2-0.3-0.2-0.5-0.1
						l-2.9,1.2c-0.4-0.6-0.9-1.2-1.4-1.7l1.9-2.4c0.1-0.1,0.1-0.4,0-0.5l-0.7-0.7c-0.1-0.1-0.4-0.1-0.5,0l-2.5,1.9
						c-0.6-0.5-1.1-0.9-1.8-1.3l1.2-2.8c0.1-0.2,0-0.4-0.1-0.5l-0.9-0.5c-0.2-0.1-0.4,0-0.5,0.1l-1.9,2.5c-0.7-0.3-1.3-0.6-2-0.8
						l0.5-3c0.1-0.2-0.1-0.4-0.3-0.4l-1-0.3c-0.2-0.1-0.4,0.1-0.4,0.3l-1.2,2.9c-0.7-0.1-1.4-0.2-2.2-0.3l-0.3-3.1
						c0-0.2-0.2-0.4-0.4-0.4h-1c-0.2,0-0.4,0.2-0.4,0.4L43.6,42c-0.7,0.1-1.5,0.2-2.2,0.3l-1.1-2.9c-0.1-0.2-0.3-0.3-0.4-0.3l-1,0.3
						c-0.2,0.1-0.3,0.3-0.3,0.4l0.4,3.1c-0.7,0.2-1.4,0.5-2,0.9l-1.8-2.5c-0.1-0.2-0.3-0.2-0.5-0.1l-0.9,0.5
						c-0.2,0.1-0.2,0.3-0.1,0.5l1.2,2.9c-0.6,0.4-1.2,0.9-1.7,1.4l-2.4-1.9c-0.1-0.1-0.4-0.1-0.5,0l-0.7,0.7c-0.1,0.1-0.1,0.4,0,0.5
						l1.9,2.5c-0.5,0.6-0.9,1.1-1.3,1.8l-2.8-1.2c-0.2-0.1-0.4,0-0.5,0.1l-0.5,0.9c-0.1,0.2,0,0.4,0.1,0.5l2.5,1.9
						c-0.3,0.7-0.6,1.3-0.8,2l-3-0.5c-0.2-0.1-0.4,0.1-0.4,0.3l-0.3,1c-0.1,0.2,0.1,0.4,0.3,0.4l2.9,1.2c-0.1,0.7-0.2,1.4-0.3,2.2
						L24,59.1c-0.2,0-0.4,0.2-0.4,0.4v1c0,0.2,0.2,0.4,0.4,0.4l3.1,0.4c0.1,0.7,0.2,1.5,0.3,2.2l-2.9,1.1c-0.2,0.1-0.3,0.3-0.3,0.4
						l0.3,1c0.1,0.2,0.2,0.3,0.4,0.3l3.1-0.4c0.2,0.7,0.5,1.4,0.9,2l-2.5,1.8c-0.2,0.1-0.2,0.3-0.1,0.5l0.5,0.9
						c0.1,0.2,0.3,0.2,0.5,0.1l2.9-1.2c0.4,0.6,0.9,1.2,1.4,1.7l-1.9,2.4c-0.1,0.1-0.1,0.4,0,0.5l0.7,0.7c0.1,0.1,0.4,0.1,0.5,0
						l2.5-1.9c0.6,0.5,1.1,0.9,1.8,1.3l-1.2,2.8c-0.1,0.2,0,0.4,0.1,0.5l0.9,0.5c0.2,0.1,0.4,0,0.5-0.1l1.9-2.5
						c0.7,0.3,1.3,0.6,2,0.8l-0.5,3c-0.1,0.2,0.1,0.4,0.3,0.4l1,0.3c0.2,0.1,0.4-0.1,0.4-0.3l1.2-2.9c0.7,0.1,1.4,0.2,2.2,0.3
						l0.3,3.1c0,0.2,0.2,0.4,0.4,0.4l1,0c0.2,0,0.4-0.2,0.4-0.4l0.4-3.1c0.7-0.1,1.5-0.2,2.2-0.3l1.1,2.9c0.1,0.2,0.3,0.3,0.4,0.3
						l1-0.3c0.2-0.1,0.3-0.3,0.3-0.4L51,76.8c0.7-0.2,1.4-0.5,2-0.9l1.8,2.5c0.1,0.2,0.3,0.2,0.5,0.1l0.9-0.5
						c0.2-0.1,0.2-0.3,0.1-0.5l-1.2-2.9c0.6-0.4,1.2-0.9,1.7-1.4l2.4,1.9c0.1,0.1,0.4,0.1,0.5,0l0.7-0.7c0.1-0.1,0.1-0.4,0-0.5
						l-1.9-2.5c0.5-0.6,0.9-1.1,1.3-1.8l2.8,1.2c0.2,0.1,0.4,0,0.5-0.1l0.5-0.9c0.1-0.2,0-0.4-0.1-0.5l-2.5-1.9
						c0.3-0.7,0.6-1.3,0.8-2l3,0.5c0.2,0.1,0.4-0.1,0.4-0.3l0.3-1c0.1-0.2-0.1-0.4-0.3-0.4l-2.9-1.2c0.1-0.7,0.2-1.4,0.3-2.2
						l3.1-0.3c0.2,0,0.4-0.2,0.4-0.4l0-1C66.4,59.1,66.2,58.9,66,58.9z M58,66.5c-2.6,5.3-8.5,8.1-12.7,8.1c-0.2,0-0.4,0-0.6,0
						c-4.2-0.3-4.1-1.5-4.1-2.2c0-0.3,0.6-1.7,4.5-8.3l0.2-0.3c0.4-0.7,1.4-1.4,2.1-1.5c0.5-0.1,3.8-0.2,6.8-0.2
						c1.7,0,2.9,0,3.7,0.1c0.5,0.1,0.8,0.2,1,0.6C59.4,64,58.1,66.4,58,66.5z M32.4,52.4c1.3-1.9,2.3-2.8,3.1-2.8
						c0.3,0,0.6,0.2,0.8,0.3c0.2,0.1,1.2,1.4,4.9,8l0.2,0.3c0.4,0.7,0.5,1.9,0.2,2.5c-0.3,0.6-3.6,6.9-5.1,9.1
						c-0.3,0.4-0.6,0.6-1,0.6c-1.3,0-2.8-2.4-2.8-2.5C29.4,62.9,29.9,55.9,32.4,52.4z M45.9,56.6c-0.4-0.6-4.1-6.6-5.2-9.1
						c-0.2-0.5-0.2-0.8,0-1.2c0.7-1.1,3.5-1.1,3.5-1.1c0.2,0,0.4,0,0.6,0c5.9,0,11.2,3.9,13,7.7c1.8,3.8,0.7,4.3,0.1,4.6
						c-0.1,0.1-0.8,0.2-3.7,0.2c-2.2,0-4.7-0.1-5.7-0.1l-0.3,0C47.4,57.6,46.3,57.1,45.9,56.6z M46.9,59.9c0,1.1-0.9,1.9-1.9,1.9
						c-1.1,0-1.9-0.9-1.9-1.9c0-1.1,0.9-1.9,1.9-1.9C46.1,57.9,46.9,58.8,46.9,59.9z M43.8,59.9c0-0.7,0.5-1.2,1.2-1.2
						s1.2,0.5,1.2,1.2c0,0.7-0.5,1.2-1.2,1.2S43.8,60.5,43.8,59.9z"/>
				</g>
			</g>
		</g>
	</g>
</g>
</svg>
